<?xml version="1.0" encoding="UTF-8"?><svg id="Layer_1" xmlns="http://www.w3.org/2000/svg" viewBox="0 0 113.34 21.93"><defs><style>.cls-1{fill:#2b2b2a;}</style></defs><path class="cls-1" d="M37.58,17.39h-.77v1.6h.81c.55,0,.93-.24,.93-.81,0-.53-.32-.79-.97-.79m-1.51,4.47v-5.12h1.63c.49,0,.88,.13,1.17,.4,.29,.26,.44,.62,.44,1.06,0,.3-.07,.57-.22,.8-.14,.22-.36,.39-.62,.49-.31,.12-.6,.16-1.11,.16h-.55v2.22h-.74Z"/><path class="cls-1" d="M44.25,17.84l.82,1.85h-1.59l.77-1.85Zm-.25-1.12l-2.2,5.14h.75l.64-1.52h2.18l.68,1.52h.75l-2.29-5.14h-.51Z"/><polygon class="cls-1" points="56.9 16.74 56.9 17.39 58.67 17.39 58.67 21.86 59.41 21.86 59.41 17.39 61.19 17.39 61.19 16.74 56.9 16.74"/><polygon class="cls-1" points="68.95 16.75 68.95 20.72 65.47 16.75 64.88 16.75 64.88 21.86 65.57 21.86 65.57 17.92 69.01 21.86 69.64 21.86 69.64 16.75 68.95 16.75"/><polygon class="cls-1" points="73.77 16.75 73.77 21.85 76.74 21.85 76.74 21.2 74.51 21.2 74.51 19.61 76.6 19.61 76.6 18.96 74.51 18.96 74.51 17.4 76.67 17.4 76.67 16.75 73.77 16.75"/><path class="cls-1" d="M51.31,17.37h-.22v1.61h.28c.37,0,.63-.03,.76-.09,.3-.14,.44-.42,.44-.73,0-.32-.18-.61-.49-.71-.15-.05-.41-.08-.77-.08m-.97,4.49v-5.11h1.3c.52,0,.93,.13,1.23,.38,.3,.26,.46,.6,.46,1.04,0,.3-.07,.56-.22,.77-.15,.22-.35,.38-.63,.49,.16,.11,.32,.25,.48,.44,.16,.19,.37,.51,.65,.97,.18,.29,.33,.51,.44,.66l.27,.37h-.88s-.24-.37-.26-.4l-.37-.58-.27-.4c-.15-.21-.29-.38-.42-.51-.13-.12-.22-.21-.33-.26-.1-.06-.29-.08-.53-.08h-.19v2.23h-.73Z"/><path class="cls-1" d="M81.54,17.37h-.22v1.61h.28c.37,0,.63-.03,.76-.09,.3-.14,.44-.42,.44-.73,0-.32-.18-.61-.49-.71-.16-.05-.41-.08-.77-.08m-.97,4.49v-5.11h1.3c.52,0,.93,.13,1.23,.38,.3,.26,.46,.6,.46,1.04,0,.3-.07,.56-.22,.77-.15,.22-.35,.38-.63,.49,.16,.11,.32,.25,.48,.44,.16,.19,.37,.51,.65,.97,.18,.29,.33,.51,.44,.66l.27,.37h-.88s-.24-.37-.26-.4l-.37-.58-.27-.4c-.15-.21-.29-.38-.42-.51-.13-.12-.22-.21-.33-.26-.1-.06-.29-.08-.53-.08h-.19v2.23h-.73Z"/><path class="cls-1" d="M89.38,19.72l-.56-.34c-.35-.21-.6-.42-.74-.63-.15-.21-.22-.44-.22-.71,0-.4,.14-.73,.42-.98,.28-.25,.64-.38,1.09-.38s.82,.12,1.18,.36v.83c-.37-.35-.77-.53-1.19-.53-.24,0-.44,.06-.59,.17s-.23,.25-.23,.42c0,.15,.06,.3,.17,.43,.11,.13,.3,.27,.55,.42l.56,.33c.62,.37,.94,.85,.94,1.42,0,.41-.14,.74-.41,1-.27,.26-.63,.38-1.07,.38-.51,0-.97-.15-1.38-.47v-.93c.4,.5,.85,.75,1.37,.75,.23,0,.42-.06,.57-.19,.15-.13,.23-.29,.23-.48,0-.31-.23-.61-.67-.89"/><path class="cls-1" d="M25.79,20.8c-.48,.55-1.57,.72-1.82,.16-.3-.66,.27-1.09,.72-1.36,0,0,.84,.92,1.1,1.2m-.88-3.48c.32,0,.59,.16,.63,.44,.05,.27-.11,.51-.29,.69-.1,.1-.23,.2-.39,.3-.17-.15-.3-.31-.4-.48-.08-.14-.14-.3-.14-.46,0-.29,.27-.48,.59-.49m1.76,3.38c.32-.41,.61-1.18,.66-1.46-.09,0-.65,0-.65,0-.07,.22-.23,.65-.44,.99l-.95-1.04c.47-.27,.94-.77,.92-1.35,0-.34-.14-.62-.39-.84-.25-.22-.57-.33-.95-.33s-.7,.11-.94,.33c-.24,.22-.37,.51-.34,.87,.03,.42,.24,.75,.64,1.21-.12,.07-.4,.25-.5,.33-.45,.37-.73,.77-.63,1.44,.07,.44,.42,1,1.3,1.07,.72,.06,1.32-.21,1.82-.67l.59,.62h.95l-1.1-1.19Z"/><path class="cls-1" d="M1.88,8.86c0,.82-.05,1.32-.16,1.53-.05,.1-.1,.19-.17,.27-.07,.08-.18,.15-.31,.2-.2,.08-.48,.12-.84,.11-.09,0-.39,0-.39,0,.33,.33,1.37,1.37,1.4,1.4,.49-.11,.9-.3,1.25-.67,.18-.19,.32-.42,.44-.71,.25-.57,.29-1.33,.28-1.97V.82H1.88V8.86Z"/><path class="cls-1" d="M17.35,5.61c0,1.01-.35,1.87-1.04,2.54-.69,.68-1.57,1.02-2.61,1.02s-1.9-.34-2.59-1c-.69-.66-1.03-1.51-1.03-2.51s.35-1.89,1.03-2.56c.68-.67,1.57-1,2.63-1s1.87,.34,2.57,1.01c.69,.67,1.04,1.51,1.04,2.49m.05-3.52c-.98-.94-2.23-1.41-3.71-1.41s-2.72,.48-3.69,1.41c-.97,.94-1.46,2.14-1.46,3.57s.49,2.57,1.45,3.5c.96,.93,2.18,1.39,3.62,1.39s2.78-.47,3.77-1.39c.99-.93,1.5-2.11,1.5-3.53s-.5-2.6-1.48-3.54"/><polygon class="cls-1" points="46.26 .82 46.26 8.1 39.66 .82 38.46 .82 38.46 10.45 39.87 10.45 39.87 3.24 46.41 10.45 47.68 10.45 47.68 .82 46.26 .82"/><polygon class="cls-1" points="58.64 .82 58.64 10.45 64.6 10.45 64.6 9.1 60.14 9.1 60.14 .82 58.64 .82"/><polygon class="cls-1" points="70.15 .82 70.15 10.45 76.41 10.45 76.41 9.1 71.64 9.1 71.64 6.27 76.14 6.27 76.14 4.92 71.64 4.92 71.64 2.18 76.28 2.18 76.28 .82 70.15 .82"/><rect class="cls-1" x="100.88" y=".82" width="1.5" height="9.63"/><path class="cls-1" d="M111.6,5.23l-1.08-.61c-.46-.27-.83-.55-1.03-.8-.18-.22-.26-.44-.26-.73s.13-.55,.4-.74c.27-.2,.63-.3,1.06-.3,.8-.01,1.61,.4,2.28,1.08V1.4c-.71-.49-1.39-.7-2.25-.7-.86,0-1.56,.24-2.08,.71-.53,.48-.8,1.11-.8,1.87,0,.52,.16,1,.47,1.39,.36,.45,.81,.83,1.37,1.17l1.03,.63c.82,.51,1.23,1.04,1.23,1.59,0,.33-.14,.61-.41,.84-.26,.22-.59,.32-1.02,.32-1.03,0-1.86-.49-2.62-1.5v1.95c.77,.59,1.63,.89,2.63,.91,.79,.02,1.49-.23,2.03-.73,.53-.49,.79-1.14,.79-1.91,0-1.12-.57-2-1.73-2.7"/><path class="cls-1" d="M30.96,.82v3.77c-1.83,0-3.01,.33-3.71,.65,.26-.38,.47-.91-.04-1.27-.36-.26-.71-.26-.98-.17-.3,.1-.59,.39-.77,.6-.2,.26-.56,.73-.74,.82-.25,.12-1,.25,.12-1.25,1.12-1.5,1.19-3.14,1.19-3.14h-.13s0,0,0,0h-.09s0,0,0,0h-1.78c.18,.51,.5,1.39,.27,2.5-.09,.44-.23,.79-.47,1.21-.1,.18-.29,.44-.35,.71h0s-.24,.51,.13,.88c.37,.36,1.09,0,1.45-.36,.25-.25,.75-.75,1.06-.97,.06-.04,.23-.15,.31-.05,.07,.1,.04,.22-.17,.43-.24,.24-1.76,1.53-2.14,3,0,0,0,0,0,0-.25,.69-.34,1.48-.06,2.29h1.28c-.48-1.76,.11-4.89,5.63-4.53v4.53h1.49V.82h-1.49Z"/><path class="cls-1" d="M94.17,3.6c-.51-.59-1.1-1.72-1.1-1.72,0,0-.16-.26,.21-.36,0,0,0,0,0,0,.03-.01,.07-.02,.12-.02,.05,0,.11,.01,.15,.04,.15,.08,.19,.25,.19,.25h0s.03,.07,.05,.1c.07,.26,.13,.51,.2,.73,0,.02,0,.03,0,.03,0,.02,.01,.03,.02,.05,.15,.43,.37,.76,.9,.9,.04,0,.07,.02,.1,.02,.15,.03,.27,.03,.37,0,.28-.04,.48-.16,.48-.16,.33-.27,.54-.55,.67-.82,.68-1.17-.58-2.65-.58-2.65l-.2,.27-.77,.98c.6,.36,.73,.9,.6,1.19h0s0,0,0,0c-.04,.09-.11,.16-.2,.18-.47,.23-.74-.99-.74-.99-.42-2.25-2.12-1.08-2.15-1.07-1.08,.88-.09,2.2,.09,2.4,.2,.21,1.41,2.03,1.41,2.03,.49,.93,.73,1.66,.81,2.22h0s.16,2.47-1.83,1.76c-3.3-1.3-3.06-8.16-3.06-8.16h-.2s0,0,0,0h-1.82l-2.59,6.44-2.58-6.44h-1.5l3.9,9.72h.35l3.1-7.67c0,1.67,.57,3.88,1.34,5.28,1.01,1.84,2.41,2.62,3.93,2.46h0s0,0,0,0c.14-.01,.28-.04,.42-.07,.18-.04,.35-.1,.51-.17,2.22-.92,1.16-3.74,1.16-3.75-.5-1.59-1.77-3.03-1.77-3.03Z"/></svg>